<?xml version="1.0" encoding="UTF-8"?><svg id="Layer_2" xmlns="http://www.w3.org/2000/svg" width="139.07" height="139.07" viewBox="0 0 139.07 139.07"><g id="Artboard2"><rect width="139.07" height="139.07" style="fill:#f2f1f1;"/><path d="M90.79,57.41l17.13-8.48c-2.07-3.93-4.72-7.5-7.98-10.57l-12.7,14.03c1.48,1.51,2.66,3.19,3.55,5.02Z" style="fill:#4c9f38; fill-rule:evenodd;"/><path d="M54.16,50.23c1.77-1.27,3.55-2.33,5.32-3.19l-6.79-17.75c-4.13,1.71-7.98,4.05-11.22,6.88l12.7,14.06Z" style="fill:#00689d; fill-rule:evenodd;"/><path d="M71,44.97c2.07.15,4.14.53,6.2,1.18l6.8-17.78c-4.14-1.42-8.27-2.27-13-2.45v19.05Z" style="fill:#e5243b; fill-rule:evenodd;"/><path d="M45.3,65.65c.3-2.16.89-4.19,1.77-6.11l-17.13-8.48c-1.77,3.99-3.25,8.33-3.54,12.88l18.9,1.71Z" style="fill:#0a97d9; fill-rule:evenodd;"/><path d="M109.11,51.38l-16.84,8.51c.59,1.89,1.18,3.9,1.48,6l19.2-1.77c-.59-4.49-2.07-8.77-3.84-12.73Z" style="fill:#c5192d; fill-rule:evenodd;"/><path d="M91.68,107.15l-10.04-16.19c-1.77,1-3.84,1.83-5.91,2.36l3.55,18.73c4.43-1,8.57-2.69,12.41-4.9Z" style="fill:#a21942; fill-rule:evenodd;"/><path d="M48.26,57.08c1.18-1.83,2.36-3.51,3.84-5.02l-12.7-14.06c-3.25,3.07-5.91,6.65-8.27,10.6l17.13,8.48Z" style="fill:#56c02b; fill-rule:evenodd;"/><path d="M92.86,77.4c-.59,1.95-1.48,3.78-2.66,5.49l15.06,11.46c2.66-3.54,4.43-7.47,5.91-11.7l-18.31-5.26Z" style="fill:#26bde2; fill-rule:evenodd;"/><path d="M79.86,47.16c1.77.89,3.55,2.01,5.32,3.37l12.7-14.03c-3.25-2.92-7.09-5.35-11.22-7.12l-6.79,17.78Z" style="fill:#dda83a; fill-rule:evenodd;"/><path d="M73.07,93.86c-1.18.18-2.36.27-3.55.27-.89,0-2.07-.06-2.95-.18l-3.55,18.73c2.07.32,4.43.47,6.5.47,2.36,0,4.72-.18,7.09-.56l-3.55-18.73Z" style="fill:#fd6925; fill-rule:evenodd;"/><path d="M45.01,69.52v-1.15l-18.91-1.68c-.29.95-.29,1.89-.29,2.84,0,3.63.59,7.18,1.48,10.54l18.31-5.26c-.59-1.68-.59-3.46-.59-5.29Z" style="fill:#3f7e44; fill-rule:evenodd;"/><path d="M88.43,85.11c-1.18,1.62-2.66,3.1-4.43,4.34l10.04,16.22c3.55-2.51,6.79-5.58,9.75-9.1l-15.36-11.46Z" style="fill:#fcc30b; fill-rule:evenodd;"/><path d="M94.04,69.52c0,1.8,0,3.54-.59,5.23l18.31,5.26c.89-3.34,1.48-6.85,1.48-10.49,0-.89,0-1.77-.29-2.66l-18.91,1.77v.89Z" style="fill:#ff3a21; fill-rule:evenodd;"/><path d="M50.92,85.47l-15.36,11.52c2.95,3.49,6.2,6.5,10.04,8.98l10.04-16.19c-1.77-1.24-3.55-2.69-4.72-4.31Z" style="fill:#fd9d24; fill-rule:evenodd;"/><path d="M49.14,83.28c-1.18-1.77-2.07-3.72-2.95-5.82l-18.31,5.26c1.48,4.37,3.54,8.45,6.2,12.08l15.06-11.52Z" style="fill:#bf8b2e; fill-rule:evenodd;"/><path d="M62.14,46.06c2.07-.62,4.14-1,6.2-1.09v-19.05c-4.43.12-8.86.95-12.99,2.39l6.79,17.75Z" style="fill:#19486a; fill-rule:evenodd;"/><path d="M63.91,93.5c-2.07-.5-4.13-1.3-5.91-2.3l-10.04,16.22c3.84,2.19,7.98,3.84,12.41,4.79l3.54-18.7Z" style="fill:#dd1367; fill-rule:evenodd;"/></g></svg>